# xmcd
#
# Track frame offsets:
#      150
#      20535
#      33545
#      45805
#      57725
#      73232
#      86737
#      100790
#      113920
#      126960
#      140005
#      149422
# 
# Disc length: 2137 seconds
#
# Revision: 1
# Processed by: cddbd v1.5.2PL0 Copyright (c) Steve Scherf et al.
#
# Submitted via: FreeRIP 1.21
#
DISCID=b308570c
DTITLE=Gino Paoli - I Grandi Successi Originali cd2
DYEAR=1900
DGENRE=pop
TTITLE0=Sassi
TTITLE1=Vivere ancora
TTITLE2=Prima di vederti
TTITLE3=Come si fà
TTITLE4=Invece no
TTITLE5=A Milano non crescono i fiori
TTITLE6=Albergo a ore
TTITLE7=Le cose dell'amore
TTITLE8=Sarà così
TTITLE9=Dedicato a tè
TTITLE10=Grazie
TTITLE11=Un perfetto delitto d'amore
EXTD=
EXTT0=
EXTT1=
EXTT2=
EXTT3=
EXTT4=
EXTT5=
EXTT6=
EXTT7=
EXTT8=
EXTT9=
EXTT10=
EXTT11=
PLAYORDER=
